<svg width="45" height="45" viewBox="0 0 89 87" fill="none" xmlns="http://www.w3.org/2000/svg">
<path d="M14.3347 82.824L19.9507 83.112C21.7747 83.112 22.6867 82.056 22.6867 79.944V8.08799C22.6867 7.22399 22.3987 6.50399 21.8227 5.928C21.3427 5.25599 20.5747 4.96799 19.5187 5.064L14.3347 5.352V1.032H46.7347C57.3907 1.032 65.1187 2.856 69.9187 6.504C74.7187 10.056 77.1187 15.864 77.1187 23.928C77.1187 28.824 75.4867 33.096 72.2227 36.744C69.0547 40.296 64.8307 42.792 59.5507 44.232C62.5267 44.232 65.5027 45.24 68.4787 47.256C71.5507 49.272 74.0947 52.2 76.1107 56.04C78.1267 59.88 79.1347 64.344 79.1347 69.432C79.1347 72.312 79.4707 75.24 80.1427 78.216C80.9107 81.192 81.9667 82.776 83.3107 82.968C83.8867 83.16 84.5587 83.256 85.3267 83.256C86.4787 83.256 87.3907 83.064 88.0627 82.68V87H68.4787C67.3267 84.6 66.6547 81.432 66.4627 77.496C66.2707 75 66.1747 73.176 66.1747 72.024V67.272C66.1747 60.072 63.8227 54.696 59.1187 51.144C54.5107 47.592 48.8467 45.816 42.1267 45.816H36.0787V79.944C36.0787 82.056 37.0387 83.112 38.9587 83.112L46.0147 82.824V87H14.3347V82.824ZM49.4707 41.928C53.8867 41.928 57.3427 40.344 59.8387 37.176C62.3347 34.008 63.5827 29.592 63.5827 23.928C63.5827 17.304 62.1907 12.504 59.4067 9.52799C56.7187 6.552 52.4947 5.064 46.7347 5.064H37.8067C36.6547 5.064 36.0787 5.544 36.0787 6.504V41.928H49.4707Z" fill="#008970"/>
<path d="M0.806561 0.599997C2.15056 0.791994 4.07056 0.887993 6.56656 0.887993H66.9026C69.9746 0.887993 71.8946 0.791994 72.6626 0.599997V23.064H68.9186C68.9186 16.824 67.5266 12.264 64.7426 9.384C62.0546 6.40799 57.5426 4.91999 51.2066 4.91999H45.1586C44.1986 4.91999 43.6226 5.44799 43.4306 6.504V79.944C43.4306 82.056 44.3906 83.112 46.3106 83.112L53.9426 82.824V87H19.5266V82.824L27.3026 83.112C28.1666 83.112 28.8386 82.776 29.3186 82.104C29.7986 81.336 30.0386 80.472 30.0386 79.512V6.648C30.0386 5.49599 29.4626 4.91999 28.3106 4.91999H22.4066C16.0706 4.91999 11.5106 6.40799 8.72656 9.384C5.94256 12.264 4.55056 16.824 4.55056 23.064H0.806561V0.599997Z" fill="#00E2C7"/>
</svg>
